<svg xmlns="http://www.w3.org/2000/svg" width="64" height="51" fill="none"><path opacity=".4" d="M49.794 22.506 28.606 1.4A4.81 4.81 0 0 0 25.212 0H4.8a4.81 4.81 0 0 0-3.394 1.4A4.772 4.772 0 0 0 0 4.781v20.332c0 1.269.506 2.485 1.406 3.381L22.594 49.6a4.81 4.81 0 0 0 6.788 0l20.412-20.332a4.772 4.772 0 0 0 0-6.761ZM11.2 15.937c-.95 0-1.877-.28-2.667-.805a4.786 4.786 0 0 1-1.768-2.146 4.764 4.764 0 0 1 1.04-5.21 4.817 4.817 0 0 1 5.231-1.036 4.796 4.796 0 0 1 2.155 1.76 4.768 4.768 0 0 1-.597 6.037 4.81 4.81 0 0 1-3.394 1.4Z" fill="#286EF1"/><path d="M62.594 29.267 42.182 49.6a4.81 4.81 0 0 1-6.788 0l-.036-.035 17.406-17.338a8.962 8.962 0 0 0 2.636-6.34 8.934 8.934 0 0 0-2.636-6.339L33.14 0h4.872a4.81 4.81 0 0 1 3.394 1.4l21.188 21.106a4.772 4.772 0 0 1 0 6.761Z" fill="#286EF1"/></svg>