<svg width="14" height="14" fill="none" xmlns="http://www.w3.org/2000/svg"><path d="m8.844 7 4-4a.61.61 0 0 0 .14-.219.621.621 0 0 0 0-.547.61.61 0 0 0-.14-.218l-.86-.86a.588.588 0 0 0-.234-.14.586.586 0 0 0-.531 0 .607.607 0 0 0-.219.14l-4 4-4-4a.588.588 0 0 0-.234-.14.586.586 0 0 0-.532 0 .607.607 0 0 0-.218.14l-.86.86A.834.834 0 0 0 1 2.234a.796.796 0 0 0-.047.282A.75.75 0 0 0 1 2.78.834.834 0 0 0 1.156 3l4 4-4 4a.833.833 0 0 0-.156.219.796.796 0 0 0-.047.281.75.75 0 0 0 .047.266.833.833 0 0 0 .156.218l.86.86a.837.837 0 0 0 .218.156.886.886 0 0 0 .282.047A.751.751 0 0 0 2.78 13a.77.77 0 0 0 .235-.156l4-4 4 4a.836.836 0 0 0 .218.156.75.75 0 0 0 .266.047.797.797 0 0 0 .281-.047.836.836 0 0 0 .219-.156l.86-.86a.606.606 0 0 0 .14-.218.62.62 0 0 0 0-.547.606.606 0 0 0-.14-.219L8.843 7Z" fill="#555"></path></svg>